<?xml version="1.0" encoding="utf-8"?>
<!-- Generator: Adobe Illustrator 16.0.0, SVG Export Plug-In . SVG Version: 6.00 Build 0)  -->
<!DOCTYPE svg PUBLIC "-//W3C//DTD SVG 1.1//EN" "http://www.w3.org/Graphics/SVG/1.1/DTD/svg11.dtd">
<svg version="1.1" id="Layer_1" xmlns="http://www.w3.org/2000/svg" xmlns:xlink="http://www.w3.org/1999/xlink" x="0px" y="0px"
	 width="75px" height="75px" viewBox="95.5 1.5 75 75" enable-background="new 95.5 1.5 75 75" xml:space="preserve">
<g>
	<path d="M145.84,38.354c10.053,2.389,14.732,7.665,14.732,12.541c0,19.809-34.739,22.992-49.072,22.992
		c-3.882,0-16.025,0-16.025-5.773c0-2.088,3.484-7.364,5.076-8.856c1.194-0.996,7.067-2.887,8.561-2.887
		c0.498,0,0.796,0.1,0.796,0.694c0,0.998-0.994,1.495-1.692,1.893c-0.597,0.399-1.094,0.896-1.691,1.494v0.198
		c35.535,1.294,45.289-8.958,45.289-10.552c0-5.076-27.571-9.058-32.35-9.853c-4.978-0.797-10.153-2.389-10.153-8.361
		c0-3.285,1.594-10.551,3.186-13.238c3.085-5.077,21.103-14.532,42.901-14.532c4.18,0,8.359,0.498,12.541,1.393
		c2.289,0.498,2.588,1.294,2.588,3.285c0,7.365-2.488,9.057-8.361,11.346c-4.279,1.593-5.076,2.091-8.959,4.878
		c-0.697,0.397-1.691,0.995-2.486,0.995c-0.996,0-1.594-0.497-1.594-1.492c0-0.2,1.891-3.285,7.268-6.969l-0.201-0.199
		c-25.68,0.896-36.729,10.154-36.828,12.443C119.363,31.187,118.069,31.884,145.84,38.354z"/>
</g>
</svg>
